<svg width="1200" height="600" xmlns="http://www.w3.org/2000/svg">
 <!-- Created with Method Draw - http://github.com/duopixel/Method-Draw/ -->
 <g>
  <title>background</title>
  <rect fill="#fff" id="canvas_background" height="602" width="1202" y="-1" x="-1"/>
  <g display="none" overflow="visible" y="0" x="0" height="100%" width="100%" id="canvasGrid">
   <rect fill="url(#gridpattern)" stroke-width="0" y="0" x="0" height="100%" width="100%"/>
  </g>
 </g>
 <g>
  <title>Layer 1</title>
  <line stroke-linecap="null" stroke-linejoin="null" id="svg_20" y2="210" x2="270" y1="170" x1="230" fill-opacity="null" stroke-opacity="null" stroke-width="5" stroke="#000" fill="none"/>
  <line stroke-linecap="null" stroke-linejoin="null" id="svg_19" y2="290" x2="270" y1="330" x1="230" fill-opacity="null" stroke-opacity="null" stroke-width="5" stroke="#000" fill="none"/>
  <line stroke-linecap="null" stroke-linejoin="null" id="svg_15" y2="130" x2="270" y1="250" x1="150" stroke-opacity="null" stroke-width="5" stroke="#000" fill="none"/>
  <line stroke-linecap="null" stroke-linejoin="null" id="svg_13" y2="370" x2="270" y1="250" x1="150" stroke-opacity="null" stroke-width="5" stroke="#000" fill="none"/>
  <rect rx="4" transform="rotate(45 150.0000000000001,249.99999999999997) " id="svg_1" height="40" width="40" y="230" x="130" stroke-width="5" stroke="#000" fill="#f2f254"/>
  <rect rx="4" transform="rotate(45 190.0000000000001,289.99999999999994) " id="svg_3" height="40" width="40" y="270" x="170" stroke-width="5" stroke="#000" fill="#f2c752"/>
  <rect rx="4" transform="rotate(45 230.0000000000001,329.99999999999994) " id="svg_4" height="40" width="40" y="310" x="210" stroke-width="5" stroke="#000" fill="#f29f52"/>
  <rect rx="4" transform="rotate(45 190.0000000000001,209.99999999999997) " id="svg_6" height="40" width="40" y="190" x="170" stroke-width="5" stroke="#000" fill="#caf252"/>
  <rect rx="4" transform="rotate(45 230.00000000000006,169.99999999999997) " id="svg_7" height="40" width="40" y="150" x="210" stroke-width="5" stroke="#000" fill="#a2f252"/>
  <rect rx="4" transform="rotate(45 270.0000000000002,369.99999999999994) " id="svg_8" height="40" width="40" y="350" x="250" stroke-width="5" stroke="#000" fill="#f27752"/>
  <rect rx="4" transform="rotate(45 270.0000000000001,289.99999999999994) " id="svg_9" height="40" width="40" y="270" x="250" stroke-width="5" stroke="#000" fill="#f2c752"/>
  <rect rx="4" transform="rotate(45 270.0000000000001,209.99999999999997) " id="svg_10" height="40" width="40" y="190" x="250" stroke-width="5" stroke="#000" fill="#caf252"/>
  <rect rx="4" transform="rotate(45 270,130) " id="svg_11" height="40" width="40" y="110" x="250" stroke-width="5" stroke="#000" fill="#7af252"/>
  <text font-weight="bold" xml:space="preserve" text-anchor="start" font-family="Oswald, sans-serif" font-size="178" id="svg_12" y="312.45313" x="336" fill-opacity="null" stroke-opacity="null" stroke-width="0" stroke="#000" fill="#000000">JuDGE</text>
 </g>
</svg>